<?xml version="1.0" standalone="no"?>
<!DOCTYPE svg PUBLIC "-//W3C//DTD SVG 20010904//EN"
 "http://www.w3.org/TR/2001/REC-SVG-20010904/DTD/svg10.dtd">
<svg version="1.0" xmlns="http://www.w3.org/2000/svg"
 width="119.000000pt" height="23.000000pt" viewBox="0 0 119.000000 23.000000"
 preserveAspectRatio="xMidYMid meet">

<g transform="translate(0.000000,23.000000) scale(0.100000,-0.100000)"
fill="#000000" stroke="none">
<path d="M1160 210 c0 -6 -10 -8 -24 -4 -57 14 -100 -58 -77 -128 6 -19 9 -42
5 -51 -3 -10 -1 -17 5 -17 6 0 11 4 11 9 0 6 15 7 33 4 44 -7 69 22 70 79 0
69 -6 118 -15 118 -4 0 -8 -5 -8 -10z m-20 -31 c0 -6 -12 -34 -27 -61 -24 -45
-28 -47 -35 -28 -9 23 -1 67 15 88 12 15 47 16 47 1z m24 -87 c-9 -36 -23 -52
-45 -52 -25 0 -24 5 8 67 24 45 29 50 35 32 5 -11 5 -33 2 -47z"/>
<path d="M10 115 c0 -57 4 -95 10 -95 6 0 10 30 11 68 l0 67 16 -32 c9 -18 19
-33 23 -33 4 0 14 15 23 33 l16 32 0 -67 c1 -38 5 -68 11 -68 6 0 10 38 10 95
0 52 -4 95 -8 95 -5 0 -17 -18 -27 -40 -10 -22 -21 -40 -25 -40 -4 0 -15 18
-25 40 -10 22 -22 40 -27 40 -4 0 -8 -43 -8 -95z"/>
<path d="M230 200 c0 -5 9 -10 20 -10 18 0 20 -7 20 -75 0 -68 -2 -75 -20 -75
-11 0 -20 -4 -20 -10 0 -5 23 -10 50 -10 28 0 50 5 50 10 0 6 -9 10 -20 10
-18 0 -20 7 -20 75 0 60 3 75 15 75 8 0 15 5 15 10 0 6 -20 10 -45 10 -25 0
-45 -4 -45 -10z"/>
<path d="M430 116 c0 -111 18 -131 22 -25 l3 71 38 -71 c21 -39 43 -71 48 -71
5 0 9 43 9 95 0 109 -18 130 -22 28 l-3 -68 -36 64 c-51 94 -59 91 -59 -23z"/>
<path d="M650 200 c0 -5 9 -10 20 -10 18 0 20 -7 20 -75 0 -68 -2 -75 -20 -75
-11 0 -20 -4 -20 -10 0 -5 23 -10 50 -10 28 0 50 5 50 10 0 6 -9 10 -20 10
-18 0 -20 7 -20 75 0 60 3 75 15 75 8 0 15 5 15 10 0 6 -20 10 -45 10 -25 0
-45 -4 -45 -10z"/>
<path d="M850 115 c0 -57 4 -95 10 -95 6 0 10 30 11 68 l0 67 16 -32 c9 -18
19 -33 23 -33 4 0 14 15 23 33 l16 32 0 -67 c1 -38 5 -68 11 -68 6 0 10 38 10
95 0 52 -4 95 -8 95 -5 0 -17 -18 -27 -40 -10 -22 -21 -40 -25 -40 -4 0 -15
18 -25 40 -10 22 -22 40 -27 40 -4 0 -8 -43 -8 -95z"/>
</g>
</svg>
